# xmcd
# 
# Track frame offsets:
#     150
#     21661
#     41509
#     63839
#     82237
#     107307
#     140796
#     165778
# 
# Disc length: 2516
# 
# Revision: 0
# Processed by: cddbd v1.5.2PL0 Copyright (c) Steve Scherf et al.
# Submitted via: fre:ac v1.0.31
# 
DISCID=6309d208
DTITLE=Luther Johnson - Snake in the grass
DYEAR=0
DGENRE=
TTITLE0=Woman don't lie
TTITLE1=Take it off him and put it on me
TTITLE2=The blues is something I'll never lose
TTITLE3=Woman why you treat me so mean
TTITLE4=They call me the snake
TTITLE5=Somebody loan me a dime
TTITLE6=Slip it off your hips and move
TTITLE7=Woman don't lie
EXTD=
EXTT0=
EXTT1=
EXTT2=
EXTT3=
EXTT4=
EXTT5=
EXTT6=
EXTT7=
PLAYORDER=
